<?xml version="1.0" encoding="UTF-8"?>
<svg xmlns="http://www.w3.org/2000/svg" xmlns:xlink="http://www.w3.org/1999/xlink" viewBox="0 0 48 48" width="48px" height="48px">
<g id="surface70856049">
<path style=" stroke:none;fill-rule:nonzero;fill:rgb(100%,100%,100%);fill-opacity:1;" d="M 39.140625 26.28125 C 38.425781 25.757812 38 24.917969 38 24.035156 C 38 23.148438 38.425781 22.308594 39.136719 21.785156 L 42.433594 19.371094 C 42.957031 18.984375 43.175781 18.308594 42.96875 17.6875 C 42.121094 15.140625 40.78125 12.816406 38.980469 10.777344 C 38.550781 10.289062 37.851562 10.136719 37.253906 10.398438 L 33.546875 12.03125 C 32.738281 12.386719 31.796875 12.335938 31.027344 11.890625 C 30.261719 11.449219 29.75 10.660156 29.652344 9.78125 L 29.207031 5.710938 C 29.136719 5.0625 28.652344 4.535156 28.015625 4.402344 C 25.417969 3.871094 22.6875 3.863281 20.046875 4.394531 C 19.402344 4.523438 18.921875 5.050781 18.851562 5.703125 L 18.40625 9.746094 C 18.3125 10.628906 17.796875 11.414062 17.027344 11.859375 C 16.261719 12.300781 15.324219 12.351562 14.515625 11.996094 L 10.785156 10.355469 C 10.191406 10.09375 9.492188 10.246094 9.058594 10.734375 C 7.257812 12.761719 5.910156 15.082031 5.050781 17.628906 C 4.84375 18.246094 5.058594 18.929688 5.585938 19.316406 L 8.859375 21.71875 C 9.574219 22.242188 10 23.082031 10 23.964844 C 10 24.851562 9.574219 25.691406 8.863281 26.214844 L 5.566406 28.628906 C 5.042969 29.015625 4.824219 29.691406 5.03125 30.3125 C 5.878906 32.859375 7.21875 35.183594 9.019531 37.222656 C 9.449219 37.710938 10.152344 37.863281 10.746094 37.601562 L 14.453125 35.96875 C 15.261719 35.613281 16.203125 35.664062 16.972656 36.109375 C 17.738281 36.550781 18.25 37.339844 18.347656 38.21875 L 18.792969 42.289062 C 18.863281 42.9375 19.347656 43.464844 19.984375 43.597656 C 21.300781 43.863281 22.648438 44 24 44 C 25.316406 44 26.648438 43.867188 27.953125 43.605469 C 28.59375 43.476562 29.078125 42.949219 29.148438 42.296875 L 29.59375 38.25 C 29.6875 37.371094 30.203125 36.582031 30.972656 36.140625 C 31.738281 35.699219 32.675781 35.648438 33.484375 36.003906 L 37.214844 37.644531 C 37.808594 37.90625 38.507812 37.753906 38.941406 37.265625 C 40.742188 35.238281 42.089844 32.914062 42.949219 30.371094 C 43.15625 29.753906 42.941406 29.070312 42.414062 28.683594 Z M 24 31 C 20.132812 31 17 27.867188 17 24 C 17 20.132812 20.132812 17 24 17 C 27.867188 17 31 20.132812 31 24 C 31 27.867188 27.867188 31 24 31 Z M 24 31 "/>
</g>
</svg>
